<!DOCTYPE svg PUBLIC "-//W3C//DTD SVG 1.1//EN" "http://www.w3.org/Graphics/SVG/1.1/DTD/svg11.dtd">
<!-- Uploaded to: SVG Repo, www.svgrepo.com, Transformed by: SVG Repo Mixer Tools -->
<svg height="800px" width="800px" version="1.1" id="Layer_1" xmlns="http://www.w3.org/2000/svg" xmlns:xlink="http://www.w3.org/1999/xlink" viewBox="0 0 512 512" xml:space="preserve" fill="#000000">
<g id="SVGRepo_bgCarrier" stroke-width="0"/>
<g id="SVGRepo_tracerCarrier" stroke-linecap="round" stroke-linejoin="round"/>
<g id="SVGRepo_iconCarrier"> <path style="fill:#000000;" d="M495.801,272.199H16.199C7.254,272.199,0,264.947,0,256s7.254-16.199,16.199-16.199h479.602 c8.945,0,16.199,7.252,16.199,16.199S504.748,272.199,495.801,272.199z"/> <circle style="fill:rgb(225 245 34);" cx="198.76" cy="256.006" r="69.655"/> <g> <path style="fill:#000000;" d="M198.765,341.854c-47.341,0-85.854-38.514-85.854-85.854s38.513-85.854,85.854-85.854 S284.618,208.66,284.618,256S246.106,341.854,198.765,341.854z M198.765,202.544c-29.475,0-53.456,23.981-53.456,53.456 s23.981,53.456,53.456,53.456s53.456-23.981,53.456-53.456S228.24,202.544,198.765,202.544z"/> <path style="fill:#000000;" d="M325.655,106.971H16.199C7.254,106.971,0,99.718,0,90.772s7.254-16.199,16.199-16.199h309.456 c8.945,0,16.199,7.252,16.199,16.199S334.602,106.971,325.655,106.971z"/> <path style="fill:#000000;" d="M495.801,106.971h-30.836c-8.945,0-16.199-7.252-16.199-16.199s7.254-16.199,16.199-16.199h30.836 c8.945,0,16.199,7.252,16.199,16.199S504.748,106.971,495.801,106.971z"/> <path style="fill:#000000;" d="M395.31,176.626c-8.945,0-16.199-7.252-16.199-16.199s7.254-16.199,16.199-16.199 c29.475,0,53.456-23.981,53.456-53.456s-23.981-53.456-53.456-53.456s-53.456,23.981-53.456,53.456 c0,8.947-7.254,16.199-16.199,16.199c-8.945,0-16.199-7.252-16.199-16.199c0-47.339,38.513-85.854,85.854-85.854 s85.854,38.514,85.854,85.854S442.651,176.626,395.31,176.626z"/> <path style="fill:#000000;" d="M325.655,437.427H16.199C7.254,437.427,0,430.175,0,421.228c0-8.947,7.254-16.199,16.199-16.199 h309.456c8.945,0,16.199,7.252,16.199,16.199C341.854,430.175,334.602,437.427,325.655,437.427z"/> <path style="fill:#000000;" d="M495.801,437.427h-30.836c-8.945,0-16.199-7.252-16.199-16.199c0-8.947,7.254-16.199,16.199-16.199 h30.836c8.945,0,16.199,7.252,16.199,16.199C512,430.175,504.748,437.427,495.801,437.427z"/> <path style="fill:#000000;" d="M395.31,507.082c-8.945,0-16.199-7.252-16.199-16.199s7.254-16.199,16.199-16.199 c29.475,0,53.456-23.981,53.456-53.456s-23.981-53.456-53.456-53.456s-53.456,23.981-53.456,53.456 c0,8.947-7.254,16.199-16.199,16.199c-8.945,0-16.199-7.252-16.199-16.199c0-47.339,38.513-85.854,85.854-85.854 s85.854,38.514,85.854,85.854S442.651,507.082,395.31,507.082z"/> </g> </g>
</svg>